<svg width="178" height="153" viewBox="0 0 178 153" fill="none" xmlns="http://www.w3.org/2000/svg">
<g filter="url(#filter0_d_2043_6)">
<path fill-rule="evenodd" clip-rule="evenodd" d="M91.0288 50C100.459 50.6083 108.55 56.129 112.764 64.0264C119.29 67.8459 124.273 72.2667 126.846 74.7629C128.006 75.8324 128.006 77.6644 126.846 78.7339C124.22 81.2817 119.083 85.8346 112.358 89.7065C108.044 97.2113 100.165 102.411 91.0288 103L87.0537 102.963C78.3004 102.234 70.7519 97.2706 66.4685 90.1277C59.3784 86.1695 53.9588 81.3748 51.236 78.7339C50.0464 77.6776 50.0464 75.8193 51.236 74.7629C53.9041 72.1751 59.1615 67.519 66.0429 63.6086C70.2399 56.0723 78.0029 50.7903 87.0537 50.0373L91.0288 50ZM91.0288 96.5486C95.5587 96.3045 99.8889 95.2469 103.896 93.7376C100.37 96.7221 95.9171 98.6478 91.0288 99.0193V96.5486ZM87.0537 98.9747C82.5387 98.5319 78.4143 96.7627 75.0748 94.0619C78.8309 95.3971 82.8564 96.3229 87.0537 96.5491V98.9747ZM69.3668 87.1849C67.9877 84.6241 67.0893 81.7672 66.7911 78.7339H71.153C79.2376 78.7339 85.9124 84.7613 86.9212 92.5631C80.6014 92.1567 74.6094 89.986 69.3668 87.1849ZM91.1608 92.5631C92.1696 84.7613 98.8448 78.7339 106.929 78.7339H111.788C111.505 81.6187 110.678 84.344 109.411 86.8068C104.006 89.789 97.7623 92.1387 91.1608 92.5631ZM79.8254 76.7484C83.8362 74.8024 87.0932 71.5489 89.0412 67.5422C90.9893 71.5487 94.2459 74.8024 98.2566 76.7484C94.2461 78.6944 90.9893 81.9478 89.0412 85.9541C87.0931 81.9477 83.8361 78.6944 79.8254 76.7484ZM63.7122 83.7641C61.1425 82.0251 58.9211 80.2673 57.1337 78.7339H62.799C62.9432 80.463 63.2524 82.1451 63.7122 83.7641ZM114.981 83.3448C115.378 81.8552 115.649 80.3143 115.78 78.7339H120.948C119.304 80.1444 117.293 81.744 114.981 83.3448ZM69.0136 66.5005C74.3393 63.608 80.4593 61.3488 86.9212 60.9333C85.9126 68.7353 79.2378 74.7629 71.153 74.7629H66.747C66.9715 71.8142 67.764 69.0242 69.0136 66.5005ZM115.817 74.7629C115.718 73.2215 115.486 71.716 115.134 70.2573C117.382 71.8227 119.341 73.3836 120.948 74.7629H115.817ZM106.929 74.7629C98.8447 74.7629 92.1694 68.7353 91.1608 60.9333C97.8988 61.3665 104.265 63.8047 109.746 66.8748C110.891 69.2991 111.619 71.9591 111.832 74.7629H106.929ZM57.1337 74.7629C58.8828 73.2624 61.0476 71.5472 63.5477 69.8448C63.1378 71.4315 62.8712 73.0758 62.7621 74.7629H57.1337ZM104.876 60.1403C100.599 58.4293 95.9308 57.212 91.0288 56.9478V53.9807C96.3815 54.3874 101.213 56.6565 104.876 60.1403ZM74.0621 59.8063C77.5632 56.6176 82.0711 54.514 87.0537 54.0253V56.9478C82.4768 57.1944 78.1037 58.2718 74.0621 59.8063Z" fill="#F8F9FA"/>
</g>
<defs>
<filter id="filter0_d_2043_6" x="0.34375" y="0" width="177.373" height="153" filterUnits="userSpaceOnUse" color-interpolation-filters="sRGB">
<feFlood flood-opacity="0" result="BackgroundImageFix"/>
<feColorMatrix in="SourceAlpha" type="matrix" values="0 0 0 0 0 0 0 0 0 0 0 0 0 0 0 0 0 0 127 0" result="hardAlpha"/>
<feOffset/>
<feGaussianBlur stdDeviation="25"/>
<feComposite in2="hardAlpha" operator="out"/>
<feColorMatrix type="matrix" values="0 0 0 0 1 0 0 0 0 0 0 0 0 0 0.478431 0 0 0 0.2 0"/>
<feBlend mode="normal" in2="BackgroundImageFix" result="effect1_dropShadow_2043_6"/>
<feBlend mode="normal" in="SourceGraphic" in2="effect1_dropShadow_2043_6" result="shape"/>
</filter>
</defs>
</svg>
