<svg width="224" height="224" viewBox="0 0 224 224" fill="none" xmlns="http://www.w3.org/2000/svg">
<style>
  .logo-path {
    stroke-dasharray: 2000;
    stroke-dashoffset: 2000;
    animation: draw 3s ease-in-out infinite;
  }

  @keyframes draw {
    0% {
      stroke-dashoffset: 2000;
    }
    45% {
      stroke-dashoffset: 0;
    }
    55% {
      stroke-dashoffset: 0;
    }
    100% {
      stroke-dashoffset: -2000;
    }
  }
</style>
<path class="logo-path" 
  fillRule="evenodd" 
  clipRule="evenodd" 
  d="M112 0C114.209 0 116 1.79086 116 4V58.1123C134.979 59.3379 151.261 70.4598 159.742 86.3701C172.875 94.0649 182.904 102.971 188.083 108H220C222.209 108 224 109.791 224 112C224 114.209 222.209 116 220 116H188.083C182.797 121.133 172.46 130.305 158.926 138.105C150.243 153.225 134.386 163.699 116 164.887V220C116 222.209 114.209 224 112 224C109.791 224 108 222.209 108 220V164.812C90.3841 163.344 75.1927 153.344 66.5723 138.954C52.3036 130.98 41.3966 121.32 35.917 116H4C1.79086 116 0 114.209 0 112C1.51402e-06 109.791 1.79086 108 4 108H35.917C41.2865 102.787 51.8671 93.4062 65.7158 85.5283C74.1624 70.3456 89.7853 59.7045 108 58.1875V4C108 1.79086 109.791 0 112 0ZM141.895 146.227C133.831 149.267 125.116 151.398 116 151.89V156.867C125.838 156.119 134.798 152.239 141.895 146.227ZM83.8926 146.88C90.6133 152.321 98.9137 155.885 108 156.777V151.891C99.553 151.435 91.4516 149.57 83.8926 146.88ZM67.2217 116C67.8216 122.111 69.6298 127.866 72.4053 133.025C82.9559 138.668 95.0148 143.042 107.733 143.86C105.703 128.143 92.2703 116 76 116H67.2217ZM148 116C131.73 116 118.296 128.143 116.266 143.86C129.551 143.005 142.117 138.272 152.995 132.264C155.544 127.302 157.208 121.812 157.778 116H148ZM112 93.4531C108.079 101.525 101.525 108.079 93.4531 112C101.525 115.92 108.079 122.474 112 130.546C115.92 122.475 122.475 115.92 130.546 112C122.474 108.079 115.92 101.525 112 93.4531ZM47.7861 116C51.3831 119.089 55.8537 122.63 61.0254 126.134C60.0999 122.872 59.4776 119.483 59.1875 116H47.7861ZM165.812 116C165.547 119.184 165.002 122.288 164.204 125.289C168.856 122.064 172.905 118.841 176.213 116H165.812ZM107.733 80.1387C94.7287 80.9757 82.4124 85.5272 71.6943 91.3545C69.1795 96.4388 67.5847 102.059 67.1328 108H76C92.2706 108 105.704 95.8566 107.733 80.1387ZM164.512 98.9229C165.22 101.862 165.686 104.895 165.887 108H176.213C172.977 105.221 169.035 102.077 164.512 98.9229ZM116.266 80.1387C118.295 95.8567 131.729 108 148 108H157.867C157.437 102.351 155.974 96.9925 153.669 92.1084C142.637 85.9234 129.826 81.0113 116.266 80.1387ZM60.6943 98.0918C55.6629 101.522 51.3061 104.977 47.7861 108H59.1133C59.3328 104.601 59.8693 101.289 60.6943 98.0918ZM116 72.1094C125.865 72.6416 135.26 75.094 143.868 78.541C136.496 71.5226 126.772 66.9513 116 66.1318V72.1094ZM108 66.2217C97.9726 67.2062 88.9005 71.4442 81.8545 77.8682C89.9882 74.7769 98.789 72.6063 108 72.1094V66.2217Z" 
  fill="none"
  stroke="#48333D"
  stroke-width="2"
/>
</svg>
