<svg width="200" height="200" viewBox="0 0 200 200" fill="none" xmlns="http://www.w3.org/2000/svg">
<path fill-rule="evenodd" clip-rule="evenodd" d="M100 9C101.795 9 103.25 10.4551 103.25 12.25V56.2162C118.67 57.212 131.9 66.2486 138.791 79.1757C149.461 85.4277 157.609 92.664 161.817 96.75H187.75C189.545 96.75 191 98.2051 191 100C191 101.795 189.545 103.25 187.75 103.25H161.817C157.522 107.42 149.124 114.873 138.127 121.211C131.072 133.495 118.189 142.006 103.25 142.97V187.75C103.25 189.545 101.795 191 100 191C98.2051 191 96.75 189.545 96.75 187.75V142.909C82.4371 141.717 70.094 133.592 63.09 121.9C51.4967 115.421 42.6348 107.573 38.1826 103.25H12.25C10.4551 103.25 9 101.795 9 100C9 98.2051 10.4551 96.75 12.25 96.75H38.1826C42.5453 92.5141 51.142 84.8926 62.3941 78.4918C69.2569 66.1558 81.9505 57.5099 96.75 56.2773V12.25C96.75 10.4551 98.2051 9 100 9ZM124.289 127.809C117.738 130.28 110.657 132.011 103.25 132.41V136.455C111.243 135.847 118.524 132.694 124.289 127.809ZM77.1627 128.34C82.6233 132.761 89.3674 135.657 96.75 136.382V132.411C89.8868 132.041 83.3044 130.526 77.1627 128.34ZM63.6176 103.25C64.1051 108.215 65.5742 112.892 67.8293 117.083C76.4017 121.668 86.1995 125.221 96.5334 125.887C94.8838 113.116 83.9696 103.25 70.75 103.25H63.6176ZM129.25 103.25C116.03 103.25 105.115 113.116 103.466 125.887C114.26 125.192 124.47 121.346 133.309 116.464C135.38 112.433 136.731 107.972 137.195 103.25H129.25ZM100 84.9307C96.8146 91.489 91.489 96.8146 84.9307 100C91.4888 103.185 96.8145 108.51 100 115.069C103.185 108.511 108.511 103.185 115.069 100C108.51 96.8145 103.185 91.4888 100 84.9307ZM47.8262 103.25C50.7488 105.76 54.3811 108.637 58.5831 111.484C57.8312 108.834 57.3255 106.08 57.0898 103.25H47.8262ZM143.723 103.25C143.507 105.837 143.064 108.359 142.416 110.797C146.196 108.177 149.485 105.559 152.173 103.25H143.723ZM96.5334 74.1127C85.9671 74.7928 75.9601 78.4909 67.2516 83.2255C65.2083 87.3565 63.9126 91.9233 63.5454 96.75H70.75C83.9699 96.75 94.8842 86.8835 96.5334 74.1127ZM142.666 89.3748C143.241 91.7625 143.62 94.2268 143.783 96.75H152.173C149.544 94.4922 146.341 91.9372 142.666 89.3748ZM103.466 74.1127C105.115 86.8836 116.03 96.75 129.25 96.75H137.267C136.918 92.1605 135.728 87.8064 133.856 83.8381C124.893 78.8127 114.483 74.8217 103.466 74.1127ZM58.3141 88.6996C54.2261 91.4862 50.6862 94.2938 47.8262 96.75H57.0295C57.2079 93.9883 57.6438 91.2969 58.3141 88.6996ZM103.25 67.5889C111.265 68.0213 118.898 70.0139 125.893 72.8146C119.903 67.1121 112.003 63.3979 103.25 62.7321V67.5889ZM96.75 62.8051C88.6027 63.605 81.2316 67.0484 75.5068 72.2679C82.1154 69.7562 89.2661 67.9926 96.75 67.5889V62.8051Z" fill="#111111"/>
</svg>
