<svg width="693" height="185" viewBox="0 0 693 185" fill="none" xmlns="http://www.w3.org/2000/svg">
<path d="M230 65H268.99V73.8714H240.48V87.5257H266.756V96.2429H240.48V110.129H268.99V119H230V65Z" fill="#111111"/>
<path d="M272.492 65H283.28L296.688 106.503H296.842L310.249 65H321.037L301.85 119H291.679L272.492 65Z" fill="#111111"/>
<path d="M335.403 65H344.958L364.684 119H354.05L349.658 107.043H330.702L326.31 119H315.676L335.403 65ZM347.346 98.4029L340.18 77.8829H340.026L333.091 98.4029H347.346Z" fill="#111111"/>
<path d="M390.339 110.129V73.8714L399.201 65H426.941L435.802 73.8714V110.129L426.941 119H399.201L390.339 110.129ZM421.393 110.051L425.323 106.117V77.8829L421.393 73.9486H404.749L400.819 77.8829V106.117L404.749 110.051H421.393Z" fill="#111111"/>
<path d="M445.064 65H454.465L478.506 101.643H478.66V65H488.755V119H479.354L455.312 82.4343H455.158V119H445.064V65Z" fill="#111111"/>
<path d="M498.792 65H509.272V110.129H536.241V119H498.792V65Z" fill="#111111"/>
<path d="M542.371 65H552.851V119H542.371V65Z" fill="#111111"/>
<path d="M563.281 65H572.682L596.724 101.643H596.878V65H606.972V119H597.571L573.53 82.4343H573.376V119H563.281V65Z" fill="#111111"/>
<path d="M617.01 65H656V73.8714H627.489V87.5257H653.765V96.2429H627.489V110.129H656V119H617.01V65Z" fill="#111111"/>
<path fill-rule="evenodd" clip-rule="evenodd" d="M119.052 39C138.071 40.2282 154.388 51.3736 162.887 67.3175C176.048 75.0285 186.097 83.9535 191.288 88.9931C193.628 91.153 193.628 94.8501 191.288 97.01C185.99 102.154 175.632 111.345 162.069 119.162C153.367 134.313 137.477 144.81 119.052 146L111.035 145.925C93.3823 144.454 78.1587 134.433 69.5201 120.013C55.2213 112.022 44.2913 102.342 38.8001 97.01C36.4 94.8766 36.4 91.1265 38.8001 88.9931C44.1809 83.7686 54.7838 74.3685 68.6618 66.4739C77.1262 51.2591 92.7821 40.5955 111.035 39.0754L119.052 39ZM119.052 132.975C128.188 132.483 136.921 130.348 145.002 127.3C137.89 133.326 128.911 137.214 119.052 137.964V132.975ZM111.035 137.873C101.93 136.979 93.612 133.408 86.877 127.955C94.452 130.651 102.571 132.52 111.035 132.976V137.873ZM75.3654 114.071C72.5841 108.902 70.7721 103.134 70.1709 97.01H78.9678C95.2724 97.01 108.734 109.179 110.768 124.929C98.0227 124.109 85.9383 119.726 75.3654 114.071ZM119.318 124.929C121.353 109.178 134.815 97.01 151.12 97.01H160.919C160.347 102.834 158.68 108.336 156.126 113.308C145.224 119.329 132.632 124.072 119.318 124.929ZM96.4578 93.0015C104.547 89.0727 111.115 82.5043 115.044 74.4155C118.973 82.5041 125.54 89.0727 133.629 93.0015C125.541 96.9303 118.973 103.498 115.044 111.587C111.115 103.498 104.546 96.9302 96.4578 93.0015ZM63.9615 107.165C58.7789 103.654 54.2989 100.106 50.6943 97.01H62.1197C62.4104 100.501 63.0341 103.897 63.9615 107.165ZM167.358 106.319C168.158 103.311 168.704 100.201 168.97 97.01H179.392C176.077 99.8575 172.02 103.087 167.358 106.319ZM74.653 72.3124C85.3937 66.4728 97.7361 61.9117 110.768 61.0729C108.734 76.8241 95.2727 88.9931 78.9678 88.9931H70.0818C70.5347 83.0399 72.1328 77.4074 74.653 72.3124ZM169.044 88.9931C168.843 85.8811 168.376 82.8417 167.666 79.8968C172.2 83.0571 176.15 86.2084 179.392 88.9931H169.044ZM151.12 88.9931C134.815 88.9931 121.353 76.8241 119.318 61.0729C132.907 61.9474 145.746 66.8698 156.801 73.0679C159.11 77.9624 160.577 83.3326 161.008 88.9931H151.12ZM50.6943 88.9931C54.2217 85.9637 58.5877 82.5009 63.6298 79.064C62.803 82.2674 62.2653 85.5869 62.0454 88.9931H50.6943ZM146.979 59.4719C138.353 56.0176 128.938 53.56 119.052 53.0266V47.0365C129.847 47.8577 139.592 52.4387 146.979 59.4719ZM84.8346 58.7976C91.8955 52.36 100.987 48.1131 111.035 47.1265V53.0266C101.805 53.5246 92.9855 55.6998 84.8346 58.7976Z" fill="#111111"/>
</svg>
