<svg width="230" height="230" viewBox="0 0 230 230" fill="none" xmlns="http://www.w3.org/2000/svg">
<path fill-rule="evenodd" clip-rule="evenodd" d="M119.052 62C138.071 63.2282 154.388 74.3736 162.887 90.3175C176.048 98.0285 186.097 106.954 191.288 111.993C193.628 114.153 193.628 117.85 191.288 120.01C185.99 125.154 175.632 134.345 162.069 142.162C153.367 157.313 137.477 167.81 119.052 169L111.035 168.925C93.3823 167.454 78.1587 157.433 69.5201 143.013C55.2213 135.022 44.2913 125.342 38.8001 120.01C36.4 117.877 36.4 114.126 38.8001 111.993C44.1809 106.769 54.7838 97.3685 68.6618 89.4739C77.1262 74.2591 92.7821 63.5955 111.035 62.0754L119.052 62ZM119.052 155.975C128.188 155.483 136.921 153.348 145.002 150.3C137.89 156.326 128.911 160.214 119.052 160.964V155.975ZM111.035 160.873C101.93 159.979 93.612 156.408 86.877 150.955C94.452 153.651 102.571 155.52 111.035 155.976V160.873ZM75.3654 137.071C72.5841 131.902 70.7721 126.134 70.1709 120.01H78.9678C95.2724 120.01 108.734 132.179 110.768 147.929C98.0227 147.109 85.9383 142.726 75.3654 137.071ZM119.318 147.929C121.353 132.178 134.815 120.01 151.12 120.01H160.919C160.347 125.834 158.68 131.336 156.126 136.308C145.224 142.329 132.632 147.072 119.318 147.929ZM96.4578 116.002C104.547 112.073 111.115 105.504 115.044 97.4155C118.973 105.504 125.54 112.073 133.629 116.002C125.541 119.93 118.973 126.498 115.044 134.587C111.115 126.498 104.546 119.93 96.4578 116.002ZM63.9615 130.165C58.7789 126.654 54.2989 123.106 50.6943 120.01H62.1197C62.4104 123.501 63.0341 126.897 63.9615 130.165ZM167.358 129.319C168.158 126.311 168.704 123.201 168.97 120.01H179.392C176.077 122.857 172.02 126.087 167.358 129.319ZM74.653 95.3124C85.3937 89.4728 97.7361 84.9117 110.768 84.0729C108.734 99.8241 95.2727 111.993 78.9678 111.993H70.0818C70.5347 106.04 72.1328 100.407 74.653 95.3124ZM169.044 111.993C168.843 108.881 168.376 105.842 167.666 102.897C172.2 106.057 176.15 109.208 179.392 111.993H169.044ZM151.12 111.993C134.815 111.993 121.353 99.8241 119.318 84.0729C132.907 84.9474 145.746 89.8698 156.801 96.0679C159.11 100.962 160.577 106.333 161.008 111.993H151.12ZM50.6943 111.993C54.2217 108.964 58.5877 105.501 63.6298 102.064C62.803 105.267 62.2653 108.587 62.0454 111.993H50.6943ZM146.979 82.4719C138.353 79.0176 128.938 76.56 119.052 76.0266V70.0365C129.847 70.8577 139.592 75.4387 146.979 82.4719ZM84.8346 81.7976C91.8955 75.36 100.987 71.1131 111.035 70.1265V76.0266C101.805 76.5246 92.9855 78.6998 84.8346 81.7976Z" fill="#F8F9FA"/>
</svg>
